<svg width="200" height="50" viewBox="0 0 200 50" fill="none" xmlns="http://www.w3.org/2000/svg">
<rect width="200" height="50" rx="10" fill="white"/>
<path d="M22.42 32.16C21.3533 32.16 20.36 31.98 19.44 31.62C18.5333 31.26 17.7467 30.76 17.08 30.12C16.4133 29.4667 15.8933 28.7067 15.52 27.84C15.1467 26.9733 14.96 26.0267 14.96 25C14.96 23.9733 15.1467 23.0267 15.52 22.16C15.8933 21.2933 16.4133 20.54 17.08 19.9C17.7467 19.2467 18.5333 18.74 19.44 18.38C20.3467 18.02 21.34 17.84 22.42 17.84C23.4867 17.84 24.4667 18.02 25.36 18.38C26.2667 18.7267 27.0533 19.2267 27.72 19.88C28.4 20.52 28.92 21.2733 29.28 22.14C29.6533 23.0067 29.84 23.96 29.84 25C29.84 26.04 29.6533 26.9933 29.28 27.86C28.92 28.7267 28.4 29.4867 27.72 30.14C27.0533 30.78 26.2667 31.28 25.36 31.64C24.4667 31.9867 23.4867 32.16 22.42 32.16ZM22.42 30.38C23.1933 30.38 23.9067 30.2467 24.56 29.98C25.2267 29.7133 25.8 29.34 26.28 28.86C26.7733 28.3667 27.1533 27.7933 27.42 27.14C27.7 26.4867 27.84 25.7733 27.84 25C27.84 24.2267 27.7 23.5133 27.42 22.86C27.1533 22.2067 26.7733 21.64 26.28 21.16C25.8 20.6667 25.2267 20.2867 24.56 20.02C23.9067 19.7533 23.1933 19.62 22.42 19.62C21.6333 19.62 20.9067 19.7533 20.24 20.02C19.5867 20.2867 19.0133 20.6667 18.52 21.16C18.0267 21.64 17.64 22.2067 17.36 22.86C17.0933 23.5133 16.96 24.2267 16.96 25C16.96 25.7733 17.0933 26.4867 17.36 27.14C17.64 27.7933 18.0267 28.3667 18.52 28.86C19.0133 29.34 19.5867 29.7133 20.24 29.98C20.9067 30.2467 21.6333 30.38 22.42 30.38ZM34.6969 24.62H41.9169V26.34H34.6969V24.62ZM34.8969 32H32.8969V18H42.7769V19.74H34.8969V32ZM47.3922 24.62H54.6122V26.34H47.3922V24.62ZM47.5922 32H45.5922V18H55.4722V19.74H47.5922V32ZM58.2875 32V18H60.2875V32H58.2875ZM70.7389 32.16C69.6722 32.16 68.6856 31.9867 67.7789 31.64C66.8856 31.28 66.1056 30.78 65.4389 30.14C64.7856 29.4867 64.2722 28.7267 63.8989 27.86C63.5256 26.9933 63.3389 26.04 63.3389 25C63.3389 23.96 63.5256 23.0067 63.8989 22.14C64.2722 21.2733 64.7922 20.52 65.4589 19.88C66.1256 19.2267 66.9056 18.7267 67.7989 18.38C68.7056 18.02 69.6922 17.84 70.7589 17.84C71.8389 17.84 72.8322 18.0267 73.7389 18.4C74.6589 18.76 75.4389 19.3 76.0789 20.02L74.7789 21.28C74.2456 20.72 73.6456 20.3067 72.9789 20.04C72.3122 19.76 71.5989 19.62 70.8389 19.62C70.0522 19.62 69.3189 19.7533 68.6389 20.02C67.9722 20.2867 67.3922 20.66 66.8989 21.14C66.4056 21.62 66.0189 22.1933 65.7389 22.86C65.4722 23.5133 65.3389 24.2267 65.3389 25C65.3389 25.7733 65.4722 26.4933 65.7389 27.16C66.0189 27.8133 66.4056 28.38 66.8989 28.86C67.3922 29.34 67.9722 29.7133 68.6389 29.98C69.3189 30.2467 70.0522 30.38 70.8389 30.38C71.5989 30.38 72.3122 30.2467 72.9789 29.98C73.6456 29.7 74.2456 29.2733 74.7789 28.7L76.0789 29.96C75.4389 30.68 74.6589 31.2267 73.7389 31.6C72.8322 31.9733 71.8322 32.16 70.7389 32.16ZM78.932 32V18H80.932V32H78.932ZM83.0034 32L89.3434 18H91.3234L97.6834 32H95.5834L89.9234 19.12H90.7234L85.0634 32H83.0034ZM85.7034 28.5L86.2434 26.9H94.1234L94.7034 28.5H85.7034ZM99.7719 32V18H101.772V30.26H109.352V32H99.7719ZM121.098 32.16C120.031 32.16 119.011 32 118.038 31.68C117.065 31.3467 116.298 30.92 115.738 30.4L116.478 28.84C117.011 29.3067 117.691 29.6933 118.518 30C119.345 30.3067 120.205 30.46 121.098 30.46C121.911 30.46 122.571 30.3667 123.078 30.18C123.585 29.9933 123.958 29.74 124.198 29.42C124.438 29.0867 124.558 28.7133 124.558 28.3C124.558 27.82 124.398 27.4333 124.078 27.14C123.771 26.8467 123.365 26.6133 122.858 26.44C122.365 26.2533 121.818 26.0933 121.218 25.96C120.618 25.8267 120.011 25.6733 119.398 25.5C118.798 25.3133 118.245 25.08 117.738 24.8C117.245 24.52 116.845 24.1467 116.538 23.68C116.231 23.2 116.078 22.5867 116.078 21.84C116.078 21.12 116.265 20.46 116.638 19.86C117.025 19.2467 117.611 18.76 118.398 18.4C119.198 18.0267 120.211 17.84 121.438 17.84C122.251 17.84 123.058 17.9467 123.858 18.16C124.658 18.3733 125.351 18.68 125.938 19.08L125.278 20.68C124.678 20.28 124.045 19.9933 123.378 19.82C122.711 19.6333 122.065 19.54 121.438 19.54C120.651 19.54 120.005 19.64 119.498 19.84C118.991 20.04 118.618 20.3067 118.378 20.64C118.151 20.9733 118.038 21.3467 118.038 21.76C118.038 22.2533 118.191 22.6467 118.498 22.94C118.818 23.2333 119.225 23.4667 119.718 23.64C120.225 23.8133 120.778 23.9733 121.378 24.12C121.978 24.2533 122.578 24.4067 123.178 24.58C123.791 24.7533 124.345 24.98 124.838 25.26C125.345 25.54 125.751 25.9133 126.058 26.38C126.365 26.8467 126.518 27.4467 126.518 28.18C126.518 28.8867 126.325 29.5467 125.938 30.16C125.551 30.76 124.951 31.2467 124.138 31.62C123.338 31.98 122.325 32.16 121.098 32.16ZM129.44 32V18H131.44V32H129.44ZM138.411 32V19.74H133.611V18H145.191V19.74H140.391V32H138.411ZM149.19 24.04H156.39V25.74H149.19V24.04ZM149.37 30.26H157.53V32H147.37V18H157.25V19.74H149.37V30.26Z" fill="#171718"/>
<path d="M183.75 24.5H183.25C183.184 24.5 183.12 24.5247 183.073 24.5686C183.026 24.6126 183 24.6722 183 24.7344V30.5938C183 30.7181 182.947 30.8373 182.854 30.9252C182.76 31.0131 182.633 31.0625 182.5 31.0625H171.5C171.367 31.0625 171.24 31.0131 171.146 30.9252C171.053 30.8373 171 30.7181 171 30.5938V20.2812C171 20.1569 171.053 20.0377 171.146 19.9498C171.24 19.8619 171.367 19.8125 171.5 19.8125H177.75C177.816 19.8125 177.88 19.7878 177.927 19.7439C177.974 19.6999 178 19.6403 178 19.5781V19.1094C178 19.0472 177.974 18.9876 177.927 18.9436C177.88 18.8997 177.816 18.875 177.75 18.875H171.5C171.102 18.875 170.721 19.0232 170.439 19.2869C170.158 19.5506 170 19.9083 170 20.2812V30.5938C170 30.9667 170.158 31.3244 170.439 31.5881C170.721 31.8518 171.102 32 171.5 32H182.5C182.898 32 183.279 31.8518 183.561 31.5881C183.842 31.3244 184 30.9667 184 30.5938V24.7344C184 24.6722 183.974 24.6126 183.927 24.5686C183.88 24.5247 183.816 24.5 183.75 24.5ZM185.625 17L181.375 17.01C181.276 17.01 181.18 17.047 181.11 17.1129C181.04 17.1789 181 17.2683 181 17.3615V17.6545C181 17.7477 181.04 17.8372 181.11 17.9031C181.18 17.969 181.276 18.0061 181.375 18.0061L184.188 17.9961L184.209 18.0169L174.11 27.4842C174.075 27.5168 174.047 27.5557 174.028 27.5984C174.009 27.6411 173.999 27.6869 173.999 27.7332C173.999 27.7795 174.009 27.8253 174.028 27.868C174.047 27.9108 174.075 27.9496 174.11 27.9822L174.287 28.148C174.321 28.1808 174.363 28.2068 174.408 28.2246C174.454 28.2423 174.503 28.2514 174.552 28.2514C174.602 28.2514 174.65 28.2423 174.696 28.2246C174.742 28.2068 174.783 28.1808 174.818 28.148L184.915 18.6799L184.938 18.7004L184.927 21.3371C184.927 21.4303 184.966 21.5198 185.037 21.5857C185.107 21.6516 185.202 21.6887 185.302 21.6887H185.614C185.714 21.6887 185.809 21.6516 185.88 21.5857C185.95 21.5198 185.989 21.4303 185.989 21.3371L186 17.3516C186 17.2583 185.96 17.1689 185.89 17.103C185.82 17.037 185.724 17 185.625 17Z" fill="#171718"/>
</svg>
